<?xml version="1.0" ?><svg data-name="Layer 1" id="Layer_1" viewBox="0 0 64 64" xmlns="http://www.w3.org/2000/svg"><path d="M63.9775,50.8889a.9288.9288,0,0,0-.0026-.1106L59.0222,28.9868l3.958-19.79a.9059.9059,0,0,0,0-.0975A.9193.9193,0,0,0,63,9V5a1,1,0,0,0-1-1H2A1,1,0,0,0,1,5V9a.9193.9193,0,0,0,.02.0988.9059.9059,0,0,0,0,.0975l3.958,19.79L.0251,50.7783a.9288.9288,0,0,0-.0026.1106A.9222.9222,0,0,0,0,51v8a1,1,0,0,0,1,1H63a1,1,0,0,0,1-1V51A.9222.9222,0,0,0,63.9775,50.8889ZM6.7985,30H17.0909c-5.2341,1.487-9.3637,3.7462-11.7647,6.4778Zm50.403,0,1.4723,6.4778C56.2728,33.7462,52.1432,31.487,46.9091,30ZM11.9526,50C7.6559,47.8671,5,45.0764,5,42.066c0-6.5049,12.3643-12,27-12s27,5.4951,27,12c0,3.01-2.6559,5.8011-6.9526,7.934H36a1,1,0,0,0-1,1,3,3,0,0,1-6,0,1,1,0,0,0-1-1ZM7.9689,50H2.253l1.2184-5.3611A11.9633,11.9633,0,0,0,7.9689,50Zm52.56-5.3611L61.747,50H56.0311A11.9633,11.9633,0,0,0,60.5286,44.6389ZM3,6H61V8H36a1,1,0,0,0-1,1,3,3,0,0,1-6,0,1,1,0,0,0-1-1H3Zm.22,4H27.1006a5.0005,5.0005,0,0,0,9.7988,0H60.78l-3.6,18H6.82ZM62,58H2V52H27.1006a5.0005,5.0005,0,0,0,9.7988,0H62ZM28,47c0,1.6821,1.7568,3,4,3s4-1.3179,4-3-1.7568-3-4-3S28,45.3179,28,47Zm6,0c0,.4077-.7793,1-2,1s-2-.5923-2-1,.7793-1,2-1S34,46.5923,34,47ZM20,43c-2.2432,0-4,1.3179-4,3s1.7568,3,4,3,4-1.3179,4-3S22.2432,43,20,43Zm0,4c-1.2207,0-2-.5923-2-1s.7793-1,2-1,2,.5923,2,1S21.2207,47,20,47Zm19-1c0,1.6821,1.7568,3,4,3s4-1.3179,4-3-1.7568-3-4-3S39,44.3179,39,46Zm6,0c0,.4077-.7793,1-2,1s-2-.5923-2-1,.7793-1,2-1S45,45.5923,45,46ZM32,37c2.2432,0,4-1.3179,4-3s-1.7568-3-4-3-4,1.3179-4,3S29.7568,37,32,37Zm0-4c1.2207,0,2,.5923,2,1s-.7793,1-2,1-2-.5923-2-1S30.7793,33,32,33ZM21,34c-2.2432,0-4,1.3179-4,3s1.7568,3,4,3,4-1.3179,4-3S23.2432,34,21,34Zm0,4c-1.2207,0-2-.5923-2-1s.7793-1,2-1,2,.5923,2,1S22.2207,38,21,38Zm21,1c2.2432,0,4-1.3179,4-3s-1.7568-3-4-3-4,1.3179-4,3S39.7568,39,42,39Zm0-4c1.2207,0,2,.5923,2,1s-.7793,1-2,1-2-.5923-2-1S40.7793,35,42,35ZM12,38c-2.2432,0-4,1.3179-4,3s1.7568,3,4,3,4-1.3179,4-3S14.2432,38,12,38Zm0,4c-1.2207,0-2-.5923-2-1s.7793-1,2-1,2,.5923,2,1S13.2207,42,12,42Zm40,2c2.2432,0,4-1.3179,4-3s-1.7568-3-4-3-4,1.3179-4,3S49.7568,44,52,44Zm0-4c1.2207,0,2,.5923,2,1s-.7793,1-2,1-2-.5923-2-1S50.7793,40,52,40ZM28,42.0005a1,1,0,0,1-.3164-1.9492l3-1a1,1,0,1,1,.6328,1.8974l-3,1A.995.995,0,0,1,28,42.0005Zm8.0513.3159a1,1,0,0,1,.6323-1.2651l3-1a1,1,0,0,1,.6328,1.8974l-3,1a.9985.9985,0,0,1-1.2651-.6323Z"/></svg>