<svg data-name="Layer 1" viewBox="0 0 64 64" xmlns="http://www.w3.org/2000/svg"><path d="M63.977 50.889a.929.929 0 0 0-.002-.11l-4.953-21.792 3.958-19.79a.906.906 0 0 0 0-.098A.92.92 0 0 0 63 9V5a1 1 0 0 0-1-1H2a1 1 0 0 0-1 1v4a.92.92 0 0 0 .02.099.906.906 0 0 0 0 .097l3.958 19.79L.025 50.778a.929.929 0 0 0-.002.11A.922.922 0 0 0 0 51v8a1 1 0 0 0 1 1h62a1 1 0 0 0 1-1v-8a.922.922 0 0 0-.023-.111ZM6.8 30H17.09c-5.234 1.487-9.364 3.746-11.765 6.478ZM57.2 30l1.473 6.478c-2.401-2.732-6.53-4.991-11.765-6.478ZM11.953 50C7.656 47.867 5 45.076 5 42.066c0-6.505 12.364-12 27-12s27 5.495 27 12c0 3.01-2.656 5.801-6.953 7.934H36a1 1 0 0 0-1 1 3 3 0 0 1-6 0 1 1 0 0 0-1-1Zm-3.984 0H2.253l1.218-5.361A11.963 11.963 0 0 0 7.97 50Zm52.56-5.361L61.747 50h-5.716a11.963 11.963 0 0 0 4.498-5.361ZM3 6h58v2H36a1 1 0 0 0-1 1 3 3 0 0 1-6 0 1 1 0 0 0-1-1H3Zm.22 4H27.1a5 5 0 0 0 9.8 0h23.88l-3.6 18H6.82ZM62 58H2v-6h25.1a5 5 0 0 0 9.8 0H62ZM28 47c0 1.682 1.757 3 4 3s4-1.318 4-3-1.757-3-4-3-4 1.318-4 3Zm6 0c0 .408-.78 1-2 1s-2-.592-2-1 .78-1 2-1 2 .592 2 1Zm-14-4c-2.243 0-4 1.318-4 3s1.757 3 4 3 4-1.318 4-3-1.757-3-4-3Zm0 4c-1.22 0-2-.592-2-1s.78-1 2-1 2 .592 2 1-.78 1-2 1Zm19-1c0 1.682 1.757 3 4 3s4-1.318 4-3-1.757-3-4-3-4 1.318-4 3Zm6 0c0 .408-.78 1-2 1s-2-.592-2-1 .78-1 2-1 2 .592 2 1Zm-13-9c2.243 0 4-1.318 4-3s-1.757-3-4-3-4 1.318-4 3 1.757 3 4 3Zm0-4c1.22 0 2 .592 2 1s-.78 1-2 1-2-.592-2-1 .78-1 2-1Zm-11 1c-2.243 0-4 1.318-4 3s1.757 3 4 3 4-1.318 4-3-1.757-3-4-3Zm0 4c-1.22 0-2-.592-2-1s.78-1 2-1 2 .592 2 1-.78 1-2 1Zm21 1c2.243 0 4-1.318 4-3s-1.757-3-4-3-4 1.318-4 3 1.757 3 4 3Zm0-4c1.22 0 2 .592 2 1s-.78 1-2 1-2-.592-2-1 .78-1 2-1Zm-30 3c-2.243 0-4 1.318-4 3s1.757 3 4 3 4-1.318 4-3-1.757-3-4-3Zm0 4c-1.22 0-2-.592-2-1s.78-1 2-1 2 .592 2 1-.78 1-2 1Zm40 2c2.243 0 4-1.318 4-3s-1.757-3-4-3-4 1.318-4 3 1.757 3 4 3Zm0-4c1.22 0 2 .592 2 1s-.78 1-2 1-2-.592-2-1 .78-1 2-1Zm-24 2a1 1 0 0 1-.316-1.949l3-1a1 1 0 1 1 .632 1.898l-3 1A.995.995 0 0 1 28 42Zm8.051.316a1 1 0 0 1 .633-1.265l3-1a1 1 0 0 1 .632 1.898l-3 1a.999.999 0 0 1-1.265-.633Z" fill="#ffffff" class="fill-000000" style="--darkreader-inline-fill:#1e2020;" data-darkreader-inline-fill=""></path></svg>